<svg width="24" height="24" viewBox="0 0 24 24" fill="none" xmlns="http://www.w3.org/2000/svg">
<mask id="path-1-inside-1_1624_8202" fill="white">
<path d="M15.645 6.87661C17.2458 7.69484 18.5243 9.02841 19.2744 10.6623C20.0244 12.2961 20.2023 14.135 19.7793 15.8823C19.3563 17.6296 18.3571 19.1835 16.9428 20.2934C15.5286 21.4033 13.7817 22.0045 11.9839 22C10.1861 21.9955 8.44223 21.3856 7.03353 20.2686C5.62483 19.1516 4.63341 17.5927 4.21917 15.8433C3.80493 14.0939 3.99202 12.256 4.75026 10.6259C5.5085 8.99583 6.79369 7.66867 8.39856 6.85847L9.70576 9.44779C8.68277 9.96424 7.86356 10.8102 7.38023 11.8493C6.89691 12.8883 6.77765 14.0599 7.0417 15.175C7.30575 16.2901 7.93771 17.2838 8.83565 17.9958C9.7336 18.7078 10.8452 19.0965 11.9911 19.0994C13.1371 19.1023 14.2506 18.7191 15.1521 18.0116C16.0536 17.3041 16.6905 16.3136 16.9602 15.1998C17.2298 14.086 17.1164 12.9139 16.6383 11.8724C16.1602 10.831 15.3452 9.98092 14.3248 9.45935L15.645 6.87661Z"/>
</mask>
<path d="M15.645 6.87661C17.2458 7.69484 18.5243 9.02841 19.2744 10.6623C20.0244 12.2961 20.2023 14.135 19.7793 15.8823C19.3563 17.6296 18.3571 19.1835 16.9428 20.2934C15.5286 21.4033 13.7817 22.0045 11.9839 22C10.1861 21.9955 8.44223 21.3856 7.03353 20.2686C5.62483 19.1516 4.63341 17.5927 4.21917 15.8433C3.80493 14.0939 3.99202 12.256 4.75026 10.6259C5.5085 8.99583 6.79369 7.66867 8.39856 6.85847L9.70576 9.44779C8.68277 9.96424 7.86356 10.8102 7.38023 11.8493C6.89691 12.8883 6.77765 14.0599 7.0417 15.175C7.30575 16.2901 7.93771 17.2838 8.83565 17.9958C9.7336 18.7078 10.8452 19.0965 11.9911 19.0994C13.1371 19.1023 14.2506 18.7191 15.1521 18.0116C16.0536 17.3041 16.6905 16.3136 16.9602 15.1998C17.2298 14.086 17.1164 12.9139 16.6383 11.8724C16.1602 10.831 15.3452 9.98092 14.3248 9.45935L15.645 6.87661Z" stroke="#A76F25" stroke-width="2.5" mask="url(#path-1-inside-1_1624_8202)"/>
<path d="M12 8.92471L8.75932 4.38776L9.93449 2.625H14.0655L15.2407 4.38776L12 8.92471Z" stroke="#A76F25" stroke-width="1.25"/>
</svg>
