<svg width="18" height="18" viewBox="0 0 18 18" fill="none" xmlns="http://www.w3.org/2000/svg">
<path d="M8.99703 17.3337C4.39453 17.3337 0.663696 13.6031 0.663696 9.00093C0.663696 4.39873 4.39453 0.668137 8.99703 0.668137C13.5995 0.668137 17.3304 4.39873 17.3304 9.00093C17.3304 13.6031 13.5995 17.3337 8.99703 17.3337Z" fill="#BD7E2A"/>
<path d="M8.99703 17.3337C4.39453 17.3337 0.663696 13.6031 0.663696 9.00093C0.663696 4.39873 4.39453 0.668137 8.99703 0.668137C13.5995 0.668137 17.3304 4.39873 17.3304 9.00093C17.3304 13.6031 13.5995 17.3337 8.99703 17.3337Z" fill="url(#paint0_linear_1_74)" fill-opacity="0.2"/>
<path d="M4.12072 10.8048C4.07395 10.9129 4.05815 11.0193 4.07759 11.1388C4.12012 11.4077 4.45484 11.6115 4.69418 11.5326C4.81446 11.4932 4.93292 11.4478 5.004 11.3378L6.30521 9.20561C6.3368 9.15302 6.36778 9.09924 6.40058 9.04725C6.46862 8.93909 6.53727 8.83152 6.60591 8.72395C6.63142 8.80343 6.65694 8.88351 6.68245 8.96299C6.68671 9.01139 6.68731 9.0598 6.69521 9.10761C6.70918 9.19127 6.72741 9.27493 6.74381 9.358L7.39502 12.9698C7.49829 13.4001 7.75829 13.7102 8.1647 13.8955C8.29956 13.957 8.44474 14.0007 8.58993 14.0317C8.69259 14.0538 8.80619 14.0592 8.90885 14.0395C9.06376 14.009 9.21927 13.9636 9.36264 13.8997C9.49446 13.8405 9.62264 13.761 9.73199 13.6672C9.88142 13.5381 9.98287 13.3672 10.0728 13.1921L13.929 6.55351C13.9327 6.54873 13.9363 6.54336 13.9406 6.53798C13.9764 6.41428 14.0262 6.29297 14.0439 6.16688C14.0651 6.01389 14.0803 5.85434 14.0596 5.70255C14.0262 5.45634 13.9661 5.21372 13.8349 4.99321C13.6611 4.70099 13.4267 4.46972 13.1339 4.29881C12.9358 4.18348 12.7177 4.11775 12.4881 4.0783C12.2214 4.03169 11.962 4.04902 11.7057 4.12073C11.5168 4.17332 11.3303 4.23786 11.1747 4.36515C11.0988 4.4273 11.0107 4.47749 10.9439 4.54741C10.8358 4.66095 10.7398 4.78585 10.6389 4.90596C10.4986 5.09301 10.4439 5.32009 10.3419 5.52566L8.969 8.63491L8.02984 5.73362C7.94965 5.4677 7.76558 5.28663 7.51956 5.17249C7.41871 5.12588 7.29175 5.13544 7.17998 5.10616C7.01231 5.06193 6.85741 5.11691 6.71647 5.17906C6.46984 5.28723 6.30278 5.48443 6.20376 5.73303L4.12072 10.8048Z" fill="white"/>
<defs>
<linearGradient id="paint0_linear_1_74" x1="0.663696" y1="2.358" x2="16.5477" y2="4.24668" gradientUnits="userSpaceOnUse">
<stop stop-color="white"/>
<stop offset="1" stop-color="#1B0738"/>
</linearGradient>
</defs>
</svg>
