<svg width="288" height="72" viewBox="0 0 288 72" fill="none" xmlns="http://www.w3.org/2000/svg">
<g filter="url(#filter0_i_1_51)">
<path d="M52.6154 0H-2.67029e-05L12.721 33.3329C13.2064 34.6047 13.2064 36.0107 12.721 37.2824L-2.67029e-05 70.6154H52.6154V0Z" fill="#FFF2E0"/>
</g>
<g filter="url(#filter1_i_1_51)">
<path d="M235.385 0H288L275.279 33.3329C274.794 34.6047 274.794 36.0107 275.279 37.2824L288 70.6154H235.385V0Z" fill="#FFF2E0"/>
</g>
<path d="M218.056 5.53846L236.571 0C236.571 0 241.576 2.04706 245.443 4.35165C246.19 4.79698 246.856 5.53846 246.856 5.53846H218.056Z" fill="#FBAC46"/>
<path d="M69.9455 5.53846L51.4312 0C51.4312 0 45.1852 1.35817 42.559 4.35165C39.0884 8.30769 39.0884 10.3846 39.0884 10.3846L69.9455 5.53846Z" fill="#FBAC46"/>
<g filter="url(#filter2_i_1_51)">
<rect x="39.0884" y="5.53846" width="209.829" height="66.4615" rx="5.53846" fill="#FFF2E0"/>
</g>
<defs>
<filter id="filter0_i_1_51" x="0" y="-5.53846" width="58.1538" height="76.1538" filterUnits="userSpaceOnUse" color-interpolation-filters="sRGB">
<feFlood flood-opacity="0" result="BackgroundImageFix"/>
<feBlend mode="normal" in="SourceGraphic" in2="BackgroundImageFix" result="shape"/>
<feColorMatrix in="SourceAlpha" type="matrix" values="0 0 0 0 0 0 0 0 0 0 0 0 0 0 0 0 0 0 127 0" result="hardAlpha"/>
<feOffset dx="5.53846" dy="-5.53846"/>
<feGaussianBlur stdDeviation="8.30769"/>
<feComposite in2="hardAlpha" operator="arithmetic" k2="-1" k3="1"/>
<feColorMatrix type="matrix" values="0 0 0 0 0.945098 0 0 0 0 0.792157 0 0 0 0 0.584314 0 0 0 1 0"/>
<feBlend mode="normal" in2="shape" result="effect1_innerShadow_1_51"/>
</filter>
<filter id="filter1_i_1_51" x="235.385" y="-5.53846" width="58.1538" height="76.1538" filterUnits="userSpaceOnUse" color-interpolation-filters="sRGB">
<feFlood flood-opacity="0" result="BackgroundImageFix"/>
<feBlend mode="normal" in="SourceGraphic" in2="BackgroundImageFix" result="shape"/>
<feColorMatrix in="SourceAlpha" type="matrix" values="0 0 0 0 0 0 0 0 0 0 0 0 0 0 0 0 0 0 127 0" result="hardAlpha"/>
<feOffset dx="5.53846" dy="-5.53846"/>
<feGaussianBlur stdDeviation="8.30769"/>
<feComposite in2="hardAlpha" operator="arithmetic" k2="-1" k3="1"/>
<feColorMatrix type="matrix" values="0 0 0 0 0.945098 0 0 0 0 0.792157 0 0 0 0 0.584314 0 0 0 1 0"/>
<feBlend mode="normal" in2="shape" result="effect1_innerShadow_1_51"/>
</filter>
<filter id="filter2_i_1_51" x="39.0884" y="0" width="215.367" height="72" filterUnits="userSpaceOnUse" color-interpolation-filters="sRGB">
<feFlood flood-opacity="0" result="BackgroundImageFix"/>
<feBlend mode="normal" in="SourceGraphic" in2="BackgroundImageFix" result="shape"/>
<feColorMatrix in="SourceAlpha" type="matrix" values="0 0 0 0 0 0 0 0 0 0 0 0 0 0 0 0 0 0 127 0" result="hardAlpha"/>
<feOffset dx="5.53846" dy="-5.53846"/>
<feGaussianBlur stdDeviation="8.30769"/>
<feComposite in2="hardAlpha" operator="arithmetic" k2="-1" k3="1"/>
<feColorMatrix type="matrix" values="0 0 0 0 0.946794 0 0 0 0 0.791501 0 0 0 0 0.584442 0 0 0 1 0"/>
<feBlend mode="normal" in2="shape" result="effect1_innerShadow_1_51"/>
</filter>
</defs>
</svg>
