<svg xmlns="http://www.w3.org/2000/svg" xmlns:xlink="http://www.w3.org/1999/xlink" width="348.75" height="392.041" viewBox="0 0 348.75 392.041">
  <defs>
    <clipPath id="clip-path">
      <rect id="Rectangle_9974" data-name="Rectangle 9974" width="104.08" height="139.395" fill="none"/>
    </clipPath>
  </defs>
  <g id="Group_14619" data-name="Group 14619" transform="translate(-382.27 -266.084)">
    <g id="Group_14615" data-name="Group 14615" transform="matrix(1, 0.017, -0.017, 1, -251.767, -13.868)">
      <path id="Path_2041" data-name="Path 2041" d="M0,0Q1.59.963,3.17,1.992" transform="translate(823.925 502.071) rotate(-164)" fill="none" stroke="#263238" stroke-width="0.75"/>
      <path id="Path_2042" data-name="Path 2042" d="M57.675,0C91.542,25.052,117.914,70.6,88.4,115.117c-17.383,26.217-46.856,15.423-57.018,6.025-11.222-10.38-.895-21.006,10.316-13.9,19.434,12.315,22.165,40.812.633,61.88C28.295,182.849,10.044,183.709,0,182.9" transform="translate(872.067 509.302) rotate(-164)" fill="none" stroke="#263238" stroke-width="0.75" stroke-dasharray="4.055 4.055"/>
      <path id="Path_2043" data-name="Path 2043" d="M3.679.665C1.352.335,0,0,0,0" transform="translate(929.338 336.574) rotate(-164)" fill="none" stroke="#263238" stroke-width="0.75"/>
      <path id="Path_2044" data-name="Path 2044" d="M.037,5.629C-.845,13.178,14.451,17.312,15.6,7.449S.918-1.92.037,5.629" transform="translate(942.137 347.593) rotate(-164)" fill="#263238"/>
      <path id="Path_2045" data-name="Path 2045" d="M20.461,10.461C19.037,13.3,14.008,13.683,8.8,10.066S0,.186,0,.186,7.178-.682,13.19,1.332s8.7,6.279,7.272,9.129" transform="translate(944.546 340.425) rotate(-164)" fill="#ebebeb"/>
      <path id="Path_2046" data-name="Path 2046" d="M0,0C2.954,1.326,5.851,2.769,8.753,4.2c2.883,1.47,5.77,2.93,8.6,4.51C14.4,7.388,11.5,5.944,8.6,4.51,5.716,3.04,2.829,1.578,0,0" transform="translate(944.596 340.247) rotate(-164)" fill="#263238"/>
      <path id="Path_2047" data-name="Path 2047" d="M3.357,5.092A25.665,25.665,0,0,1,1.535,2.64,25.316,25.316,0,0,1,0,0,25.427,25.427,0,0,1,1.822,2.453a25.652,25.652,0,0,1,1.535,2.64" transform="translate(936.174 332.494) rotate(-164)" fill="#263238"/>
      <path id="Path_2048" data-name="Path 2048" d="M0,.914A28.334,28.334,0,0,1,3.142.286,28.318,28.318,0,0,1,6.334,0,27.865,27.865,0,0,1,3.19.627,28.726,28.726,0,0,1,0,.914" transform="translate(938.362 335.61) rotate(-164)" fill="#263238"/>
      <path id="Path_2049" data-name="Path 2049" d="M1.359,2.718A6.485,6.485,0,0,1,.526,1.436,6.484,6.484,0,0,1,0,0,6.4,6.4,0,0,1,.833,1.282a6.484,6.484,0,0,1,.526,1.436" transform="translate(941.048 336.974) rotate(-164)" fill="#263238"/>
      <path id="Path_2050" data-name="Path 2050" d="M22.279,3.425C21.547.335,16.743-1.2,10.844,1.12S0,8.7,0,8.7s6.785,2.5,13.1,1.927,9.917-4.1,9.181-7.206" transform="translate(940.507 352.331) rotate(-164)" fill="#ebebeb"/>
      <path id="Path_2051" data-name="Path 2051" d="M0,4.478C3.181,3.87,6.332,3.132,9.486,2.406,12.63,1.64,15.777.886,18.892,0c-3.181.608-6.332,1.346-9.486,2.073C6.263,2.838,3.115,3.595,0,4.478" transform="translate(941.672 348.267) rotate(-164)" fill="#263238"/>
      <path id="Path_2052" data-name="Path 2052" d="M4.441,0A25.869,25.869,0,0,0,2.1,1.966,25.573,25.573,0,0,0,0,4.181,25.274,25.274,0,0,0,2.338,2.215,25.857,25.857,0,0,0,4.441,0" transform="translate(930.318 347.442) rotate(-164)" fill="#263238"/>
      <path id="Path_2053" data-name="Path 2053" d="M0,0A28.332,28.332,0,0,0,2.913,1.333,27.945,27.945,0,0,0,5.952,2.35,27.949,27.949,0,0,0,3.039,1.015,28.339,28.339,0,0,0,0,0" transform="translate(934.779 343.585) rotate(-164)" fill="#263238"/>
      <path id="Path_2054" data-name="Path 2054" d="M1.949,0A6.742,6.742,0,0,0,0,2.333,6.58,6.58,0,0,0,1.106,1.277,6.762,6.762,0,0,0,1.949,0" transform="translate(937.439 345.98) rotate(-164)" fill="#263238"/>
      <path id="Path_2055" data-name="Path 2055" d="M3.061.019A2.742,2.742,0,1,1,.018,2.425,2.743,2.743,0,0,1,3.061.019" transform="translate(946.591 343.034) rotate(-164)" fill="#455a64"/>
      <path id="Path_2056" data-name="Path 2056" d="M3.061.019A2.742,2.742,0,1,1,.019,2.425,2.743,2.743,0,0,1,3.061.019" transform="translate(944.478 348.093) rotate(-164)" fill="#455a64"/>
      <rect id="Rectangle_9969" data-name="Rectangle 9969" width="264.028" height="329.232" transform="translate(898.121 656.418) rotate(-164)" fill="none"/>
      <rect id="Rectangle_9970" data-name="Rectangle 9970" width="210.813" height="124.083" transform="translate(915.138 597.067) rotate(178.97)" fill="#dad9d8"/>
      <g id="Group_14614" data-name="Group 14614" transform="translate(769.485 619.533) rotate(-164)" opacity="0.2">
        <g id="Group_14613" data-name="Group 14613">
          <g id="Group_14612" data-name="Group 14612" clip-path="url(#clip-path)">
            <rect id="Rectangle_9973" data-name="Rectangle 9973" width="70.845" height="124.087" transform="translate(0 20.748) rotate(-17.029)"/>
          </g>
        </g>
      </g>
      <path id="Path_2057" data-name="Path 2057" d="M25.133,0q-3.409,15.743-6.654,31.53l-6.4,31.6L5.909,94.786Q2.865,110.628,0,126.517q3.409-15.741,6.656-31.528l6.4-31.6L19.22,31.728Q22.264,15.889,25.133,0" transform="translate(733.323 602.872) rotate(-164)" fill="#fff"/>
      <path id="Path_2058" data-name="Path 2058" d="M91.678,90.737Q80.4,79.186,69.012,67.761L46.167,44.989l-22.994-22.6Q11.647,11.127,0,0,11.278,11.553,22.667,22.976L45.51,45.747l23,22.6Q80.033,79.61,91.678,90.737" transform="translate(770.238 594.847) rotate(-164)" fill="#fff"/>
      <rect id="Rectangle_9975" data-name="Rectangle 9975" width="1.156" height="16.299" transform="translate(882.411 588.01) rotate(178.945)" fill="#263238" opacity="0.46"/>
      <rect id="Rectangle_9976" data-name="Rectangle 9976" width="1.156" height="16.299" transform="translate(885.184 587.96) rotate(178.945)" fill="#263238" opacity="0.46"/>
      <rect id="Rectangle_9977" data-name="Rectangle 9977" width="1.155" height="16.299" transform="translate(887.956 587.91) rotate(178.945)" fill="#263238" opacity="0.46"/>
      <rect id="Rectangle_9978" data-name="Rectangle 9978" width="1.155" height="16.299" transform="translate(890.729 587.861) rotate(178.945)" fill="#263238" opacity="0.46"/>
      <rect id="Rectangle_9979" data-name="Rectangle 9979" width="1.156" height="16.299" transform="translate(893.503 587.811) rotate(178.945)" fill="#263238" opacity="0.46"/>
      <rect id="Rectangle_9980" data-name="Rectangle 9980" width="1.155" height="16.299" transform="translate(896.275 587.761) rotate(178.945)" fill="#263238" opacity="0.46"/>
      <rect id="Rectangle_9981" data-name="Rectangle 9981" width="1.155" height="16.299" transform="translate(899.048 587.712) rotate(178.945)" fill="#263238" opacity="0.46"/>
      <rect id="Rectangle_9982" data-name="Rectangle 9982" width="1.156" height="16.299" transform="translate(901.821 587.661) rotate(178.945)" fill="#263238" opacity="0.46"/>
      <rect id="Rectangle_9983" data-name="Rectangle 9983" width="1.155" height="16.299" transform="matrix(-1, 0.018, -0.018, -1, 904.594, 587.611)" fill="#263238" opacity="0.46"/>
      <path id="Path_2059" data-name="Path 2059" d="M4.615,2.938,0,3.057,9.981,0,6.094,2.5,7.848,8.226c3.166-.534,5.295,2.1,6.9,7.35L4.77,18.634c-1.6-5.237-1.318-8.623,1.6-9.955Z" transform="translate(873.516 591.089) rotate(-164)" fill="#263238" opacity="0.46"/>
      <path id="Path_2060" data-name="Path 2060" d="M0,10.469l2.6-.8L.268,2.043,6.94,0,9.277,7.627l2.617-.8L8.374,16.6Z" transform="translate(858.461 590.469) rotate(-164)" fill="#263238" opacity="0.46"/>
      <path id="Path_2062" data-name="Path 2062" d="M93.867,13.45,26.119,34.2,0,20.752,67.748,0Z" transform="translate(767.254 495.468) rotate(-164)" fill="#c6c6c5"/>
      <path id="Path_2064" data-name="Path 2064" d="M0,46.523,67.748,25.771,81.853,0,14.105,20.752Z" transform="translate(920.75 496.84) rotate(-164)" fill="#dcdcdc"/>
      <rect id="Rectangle_9987" data-name="Rectangle 9987" width="264.028" height="329.232" transform="translate(898.121 656.418) rotate(-164)" fill="none"/>
      <rect id="Rectangle_9988" data-name="Rectangle 9988" width="264.028" height="329.232" transform="translate(898.121 656.418) rotate(-164)" fill="none"/>
    </g>
    <line id="Line_269" data-name="Line 269" x2="250" transform="translate(420.5 600.5)" fill="none" stroke="#e0e0e0" stroke-width="1"/>
  </g>
</svg>
