<svg width="80" height="80" viewBox="0 0 80 80" fill="none" xmlns="http://www.w3.org/2000/svg">
<path d="M21.1814 20.2561C21.3627 18.8658 20.3954 15.8141 18.655 14.331C16.4794 12.4772 12.6767 3.66943 20.8352 1.35217C28.9937 -0.965083 31.5717 8.81253 32.6037 11.4505C33.6915 14.2312 33.6915 16.5489 32.6037 18.4025" stroke="#832729" stroke-linecap="round" stroke-linejoin="round"/>
<path d="M14.3895 22.8497L59.5727 17.1454L52.6542 15.4006L48.0297 12.4746L4.10986 17.142L14.3895 22.8497Z" fill="#D88789" stroke="#832729" stroke-width="0.75" stroke-linejoin="round"/>
<path d="M47.958 18.3248L58.0183 17.0512L52.5398 15.6689L47.958 12.7734V18.3248Z" fill="#C9585A"/>
<path d="M52.5392 17.7934L58.0175 17.0503L52.5391 15.668L52.5392 17.7934Z" fill="#D88789"/>
<path d="M18.7046 73.8943L14.3316 23.1418L12.263 20.4598L4.16751 17.2754V54.3384L1 67.4688L18.7046 73.8943Z" fill="white" stroke="#832729" stroke-width="0.75" stroke-linecap="round" stroke-linejoin="round"/>
<path d="M5.0625 65.7715L11.0454 63.9177M11.0454 63.9177L14.3319 68.5522M11.0454 63.9177V56.0391" stroke="#832729" stroke-width="0.75" stroke-linecap="round" stroke-linejoin="round"/>
<path d="M59.5279 17.2637L14.2144 22.9645V55.6145L18.6244 73.8829L63.4801 67.7935L59.5279 51.3389V17.2637Z" fill="#F8E7E7" stroke="#832729" stroke-width="0.75" stroke-linejoin="round"/>
<path d="M18.8882 73.464L15.881 61.1204C15.8647 61.0535 15.9194 60.9905 15.9879 60.9972L18.8755 61.2806C23.8964 61.7733 29.2755 61.5912 32.9777 58.164C34.4415 56.8089 35.8401 55.0947 36.9373 52.9892C36.9862 52.8954 37.1318 52.929 37.1318 53.0348V62.0178C37.1318 62.0233 37.1313 62.0287 37.1305 62.0341L35.6208 71.2156C35.6137 71.2589 35.5791 71.2925 35.5356 71.2984L18.9988 73.5394C18.9481 73.5463 18.9003 73.5137 18.8882 73.464Z" fill="#F8E7E7"/>
<path d="M32.257 24.9877C32.4383 23.5973 32.3658 20.4458 30.6253 18.9628C28.4497 17.109 22.4668 8.76687 30.6253 6.44962C38.7838 4.13236 42.6474 13.5441 43.6794 16.1821C44.7672 18.9628 44.7672 21.2805 43.6794 23.1341" stroke="#832729" stroke-linecap="round" stroke-linejoin="round"/>
<path fill-rule="evenodd" clip-rule="evenodd" d="M34.0848 55.2939L34.4825 55.2415L33.9854 52.2609C34.2809 52.8148 35.3817 53.4467 35.3817 53.4467C35.3817 53.4467 36.2439 53.9874 36.7486 54.8205L37.0071 54.9091L36.2831 50.5682L35.8856 50.6206L36.3928 53.6611C36.0773 53.1098 35.109 52.5422 35.109 52.5422C34.3562 52.0485 33.7853 51.3059 33.6226 50.9389L33.3507 50.893L34.0848 55.2939ZM37.6946 50.3824L38.2513 50.3091L38.9754 54.65L38.4187 54.7233L37.6946 50.3824ZM37.2227 49.1362C37.1693 48.8161 37.3677 48.5446 37.6857 48.5027C37.9641 48.4661 38.2627 48.6721 38.3161 48.9922C38.3661 49.2922 38.151 49.5864 37.8726 49.623C37.5545 49.6649 37.2727 49.4362 37.2227 49.1362ZM42.3543 50.7911C42.2218 50.8494 42.0726 50.8078 41.9134 50.7061C41.6846 50.5522 41.5752 50.3826 41.2899 50.2566C40.9882 50.1532 40.5874 50.1855 40.3789 50.397C40.1869 50.5858 40.2469 50.9459 40.5188 51.1145C41.0361 51.4144 41.5664 51.549 42.1932 51.7731C43.3402 52.1945 43.6826 53.1512 43.0304 53.7482C42.4843 54.2493 41.7155 54.3914 40.9764 54.223C40.4029 54.0736 39.912 53.6885 39.7623 53.1562C40.1202 53.1091 40.2661 53.2535 40.442 53.4552C40.7108 53.7265 40.87 53.8282 41.2114 53.9262C41.6986 54.0462 42.2055 53.9181 42.4737 53.6988C42.8643 53.3612 42.728 52.9089 42.3598 52.6507C41.6003 52.117 40.7552 52.0443 40.2212 51.6444C39.7569 51.2966 39.5443 50.8748 39.8851 50.3597C40.1794 49.9326 41.1137 49.687 41.7504 50.0937C42.0256 50.2824 42.248 50.5189 42.3543 50.7911ZM44.5018 53.7997L45.0784 53.7238L44.8815 52.5436L46.4521 52.3368L46.659 53.5772L47.2554 53.4986L46.5413 49.2177L45.9449 49.2962L46.3954 51.9967L44.8248 52.2035L44.3743 49.503L43.7978 49.5789L44.5018 53.7997ZM25.4158 52.2852C25.3095 52.1356 25.3586 51.6998 25.8425 51.6769L28.1883 51.3681C28.4899 51.3489 28.632 51.1053 29.0164 51.0955C28.5531 51.6063 28.5302 51.8342 28.5009 52.2674L28.6404 55.4178C28.7512 56.6911 29.2824 57.6842 30.3604 58.4214C29.7973 58.5773 28.3912 57.822 28.0712 56.1469C27.8912 55.3119 27.6828 52.6 27.6828 52.6C27.669 52.152 27.8939 51.7954 27.8939 51.7954L25.6672 52.0885C25.5316 52.1268 25.452 52.1373 25.4158 52.2852ZM50.0448 52.9269C49.5243 52.607 49.1926 52.3236 48.8108 51.7401C48.439 51.2167 48.3091 50.5591 48.3515 50.0833C48.4073 49.5649 48.6852 49.1603 48.96 48.8584C49.3612 49.0713 49.7923 49.3417 50.1473 49.7652C50.7347 50.4851 50.8281 51.0452 50.6568 51.8447C50.5512 52.3082 50.3959 52.5945 50.0448 52.9269ZM49.0355 48.3374C48.5357 48.8733 48.1254 49.3363 47.9671 49.9703C47.7889 50.6072 47.8529 51.4778 48.3342 52.1708C48.8685 52.9387 49.3992 53.3186 50.026 53.788C50.4738 54.1584 51.3296 54.9044 51.2145 55.6759C51.3934 55.6524 51.5585 55.1808 51.5717 55.0155C51.5844 54.4823 51.4814 54.2302 51.1991 53.8789C51.0166 53.6372 50.6752 53.4164 50.413 53.1851C50.6878 52.8832 50.9622 52.4585 51.1773 52.0418C51.4517 51.4946 51.5301 50.6257 50.9362 49.8657C50.3885 49.1405 49.0955 48.5748 49.0355 48.3374ZM30.5083 54.4359L32.1781 54.216L31.8611 52.3156C31.5737 53.1508 30.6498 53.7017 30.5083 54.4359ZM30.5264 55.7623C30.3005 55.3832 30.3464 54.9274 30.4191 54.7543L32.2281 54.5161L32.395 55.5163L32.8523 55.4561L32.1149 51.0352C32.1149 51.0352 31.9723 51.0335 31.8996 51.2066C31.4039 52.3758 30.9338 52.7239 30.3052 53.5835C29.7757 54.3074 29.4187 55.0904 29.7907 55.8592L30.5264 55.7623ZM40.6173 41.5953C40.6463 40.9169 40.1287 40.3717 39.4727 40.4581L37.6834 40.6936C37.2296 40.7738 36.55 40.4749 36.55 40.4749L37.0539 43.4956C37.5644 46.5561 39.4512 47.6366 40.2464 47.6545C40.3956 47.6963 40.4883 47.6432 40.2861 47.5267C39.1189 46.9853 38.2324 45.446 37.9426 44.0736L37.4821 41.3131C37.7242 41.4242 38.1449 41.3893 38.1449 41.3893L39.7353 41.1799C40.1528 41.1249 40.3949 41.2362 40.6173 41.5953ZM32.6056 42.6501C32.3563 42.0083 32.6937 41.3505 33.3297 41.2668L35.1191 41.0312C35.5994 40.9884 36.1325 40.5299 36.1325 40.5299L36.6363 43.5505C37.1468 46.6111 35.6937 48.1313 34.9385 48.3533C34.8093 48.4317 34.7033 48.4048 34.8589 48.2412C35.799 47.4223 36.1451 45.7208 35.9743 44.3327L35.5139 41.5722C35.3187 41.7409 34.9045 41.8159 34.9045 41.8159L33.3339 42.0227C32.9165 42.0776 32.7212 42.2464 32.6056 42.6501Z" fill="#631517"/>
<path d="M49.4109 34.1716C49.5403 33.004 48.8497 30.4411 47.6069 29.1956C46.0533 27.6388 43.338 20.2418 49.1637 18.2958C54.9894 16.3497 56.8303 24.5611 57.5672 26.7766C58.3439 29.1118 58.3439 31.0583 57.5672 32.615" stroke="#832729" stroke-linecap="round" stroke-linejoin="round"/>
<path d="M44.5616 36.3499L76.8253 31.5593L68.5828 27.6367L37.2212 31.5564L44.5616 36.3499Z" fill="#D88789" stroke="#832729" stroke-width="0.75" stroke-linejoin="round"/>
<path d="M68.542 32.4937L71.999 32V29.5L68.542 27.9395V32.4937Z" fill="#C9585A"/>
<path d="M44.5196 36.5967L37.2618 31.6699V62.7961L35 73.8232L47.6422 79.2195L44.5196 36.5967Z" fill="white"/>
<path d="M37.9007 72.3976L42.1729 70.8407M42.1729 70.8407L44.5196 74.7329M42.1729 70.8407V64.2241M37.2618 31.6699L44.5196 36.5967L47.6422 79.2195L35 73.8232L37.2618 62.7961V31.6699Z" stroke="#832729" stroke-width="0.75" stroke-linecap="round" stroke-linejoin="round"/>
<path d="M76.7934 31.6602L44.4365 36.4478V63.8679L47.5856 79.21L79.6155 74.096L76.7934 60.2772V31.6602Z" fill="#F8E7E7" stroke="#832729" stroke-width="0.75" stroke-linejoin="round"/>
<path d="M45.6427 67.9971L47.9008 78.6907C47.9118 78.7428 47.9617 78.7771 48.0142 78.7688L79.2042 73.8396C79.2608 73.8306 79.2983 73.776 79.2863 73.7199L76.4255 60.3465C76.4241 60.3397 76.4233 60.3328 76.4233 60.3258L76.397 50.514C76.3969 50.4537 76.3432 50.4073 76.2837 50.4166C70.1729 51.3743 67.5798 64.9097 61.8964 68.3373C56.1723 71.3583 52.7121 72.5403 45.8007 67.8953C45.7259 67.8451 45.6241 67.9089 45.6427 67.9971Z" fill="#F8E7E7"/>
<path d="M58.1078 37.0603C58.5956 38.129 59.3734 40.6594 58.582 42.2308C57.5928 44.1952 55.7236 52.1851 61.8657 52.2134C68.0077 52.2417 68.1587 43.8713 68.1664 41.5366C68.1746 39.0755 67.5664 37.2265 66.3421 35.9905" stroke="#832729" stroke-linecap="round" stroke-linejoin="round"/>
<path fill-rule="evenodd" clip-rule="evenodd" d="M59.9329 69.1288L60.2371 69.0887L59.8569 66.8095C60.0829 67.233 60.9247 67.7162 60.9247 67.7162C60.9247 67.7162 61.584 68.1298 61.97 68.7668L62.1677 68.8346L61.614 65.5151L61.31 65.5551L61.6979 67.8802C61.4566 67.4587 60.7161 67.0246 60.7161 67.0246C60.1405 66.647 59.7039 66.0792 59.5795 65.7985L59.3715 65.7634L59.9329 69.1288ZM62.6934 65.373L63.1191 65.3169L63.6728 68.6364L63.2471 68.6925L62.6934 65.373ZM62.3325 64.42C62.2917 64.1752 62.4433 63.9676 62.6866 63.9356C62.8994 63.9076 63.1278 64.0651 63.1686 64.3099C63.2069 64.5393 63.0423 64.7642 62.8295 64.7923C62.5862 64.8243 62.3707 64.6494 62.3325 64.42ZM66.2567 65.6855C66.1553 65.7301 66.0413 65.6983 65.9195 65.6205C65.7445 65.5028 65.6609 65.3731 65.4427 65.2768C65.212 65.1977 64.9055 65.2224 64.746 65.3841C64.5992 65.5285 64.6452 65.8038 64.8531 65.9328C65.2487 66.1621 65.6542 66.265 66.1334 66.4365C67.0106 66.7587 67.2724 67.4903 66.7737 67.9468C66.356 68.33 65.7682 68.4387 65.203 68.3099C64.7644 68.1957 64.389 67.9012 64.2745 67.4941C64.5482 67.4581 64.6598 67.5685 64.7943 67.7227C64.9998 67.9302 65.1216 68.008 65.3827 68.083C65.7553 68.1747 66.1428 68.0767 66.348 67.909C66.6467 67.6509 66.5424 67.305 66.2609 67.1075C65.68 66.6994 65.0338 66.6438 64.6255 66.338C64.2704 66.0721 64.1079 65.7495 64.3685 65.3556C64.5935 65.029 65.308 64.8412 65.7948 65.1522C66.0053 65.2965 66.1754 65.4773 66.2567 65.6855ZM67.8989 67.9862L68.3398 67.9282L68.1892 67.0256L69.3903 66.8675L69.5485 67.816L70.0045 67.756L69.4585 64.4823L69.0024 64.5424L69.3469 66.6074L68.1459 66.7656L67.8014 64.7005L67.3605 64.7585L67.8989 67.9862ZM53.3037 66.828C53.2224 66.7137 53.26 66.3804 53.63 66.3629L55.4238 66.1267C55.6545 66.1121 55.7632 65.9257 56.0571 65.9183C55.7028 66.3089 55.6853 66.4832 55.6629 66.8145L55.7696 69.2236C55.8543 70.1973 56.2605 70.9567 57.0848 71.5204C56.6542 71.6396 55.579 71.0621 55.3343 69.7811C55.1966 69.1426 55.0372 67.0688 55.0372 67.0688C55.0267 66.7262 55.1987 66.4535 55.1987 66.4535L53.496 66.6776C53.3922 66.7069 53.3314 66.7149 53.3037 66.828ZM72.1376 67.3187C71.7396 67.0741 71.486 66.8574 71.194 66.4112C70.9097 66.0109 70.8103 65.5081 70.8428 65.1442C70.8854 64.7478 71.0979 64.4384 71.3081 64.2076C71.6149 64.3704 71.9445 64.5771 72.216 64.901C72.6652 65.4515 72.7366 65.8798 72.6056 66.4912C72.5248 66.8457 72.4061 67.0646 72.1376 67.3187ZM71.3658 63.8091C70.9836 64.219 70.6698 64.573 70.5488 65.0579C70.4125 65.5449 70.4615 66.2107 70.8295 66.7406C71.2381 67.3278 71.6439 67.6183 72.1233 67.9772C72.4657 68.2605 73.1201 68.831 73.0321 69.4209C73.1689 69.4029 73.2952 69.0424 73.3052 68.9159C73.3149 68.5082 73.2362 68.3154 73.0204 68.0468C72.8808 67.8619 72.6197 67.6931 72.4192 67.5162C72.6293 67.2853 72.8392 66.9606 73.0036 66.6419C73.2135 66.2235 73.2734 65.559 72.8193 64.9778C72.4005 64.4233 71.4117 63.9906 71.3658 63.8091ZM57.1979 68.4727L58.4748 68.3046L58.2324 66.8513C58.0127 67.49 57.3061 67.9113 57.1979 68.4727ZM57.2118 69.487C57.0391 69.1971 57.0741 68.8485 57.1298 68.7162L58.5131 68.534L58.6407 69.2989L58.9905 69.2529L58.4265 65.8721C58.4265 65.8721 58.3175 65.8709 58.2619 66.0033C57.8829 66.8973 57.5233 67.1636 57.0426 67.8209C56.6377 68.3745 56.3647 68.9732 56.6492 69.5611L57.2118 69.487ZM64.9283 58.6534C64.9506 58.1346 64.5547 57.7177 64.0531 57.7838L62.6848 57.9639C62.3378 58.0252 61.8181 57.7966 61.8181 57.7966L62.2034 60.1066C62.5938 62.447 64.0366 63.2732 64.6447 63.2869C64.7588 63.3189 64.8297 63.2783 64.6751 63.1892C63.7825 62.7752 63.1046 61.5981 62.883 60.5485L62.5309 58.4376C62.716 58.5226 63.0377 58.4959 63.0377 58.4959L64.2539 58.3357C64.5732 58.2937 64.7583 58.3788 64.9283 58.6534ZM58.8017 59.46C58.6111 58.9692 58.8691 58.4662 59.3555 58.4022L60.7238 58.2221C61.0912 58.1893 61.4988 57.8387 61.4988 57.8387L61.8841 60.1486C62.2745 62.489 61.1633 63.6515 60.5857 63.8213C60.487 63.8813 60.4059 63.8607 60.5249 63.7356C61.2438 63.1094 61.5084 61.8082 61.3779 60.7467L61.0257 58.6357C60.8765 58.7648 60.5597 58.8221 60.5597 58.8221L59.3587 58.9802C59.0395 59.0222 58.8902 59.1513 58.8017 59.46Z" fill="#631517"/>
</svg>
