<svg width="336" height="104" viewBox="0 0 336 104" fill="none" xmlns="http://www.w3.org/2000/svg">
<mask id="path-1-inside-1_2242_54885" fill="white">
<path fill-rule="evenodd" clip-rule="evenodd" d="M0 8C0 3.58172 3.58172 0 8 0H328C332.418 0 336 3.58172 336 8V35.5508C327.163 35.5508 320 42.7142 320 51.5508C320 60.3873 327.163 67.5508 336 67.5508V96C336 100.418 332.418 104 328 104H8.00001C3.58173 104 0 100.418 0 96V67.5507C8.83656 67.5507 16 60.3873 16 51.5507C16 42.7142 8.83656 35.5507 0 35.5507V8Z"/>
</mask>
<path fill-rule="evenodd" clip-rule="evenodd" d="M0 8C0 3.58172 3.58172 0 8 0H328C332.418 0 336 3.58172 336 8V35.5508C327.163 35.5508 320 42.7142 320 51.5508C320 60.3873 327.163 67.5508 336 67.5508V96C336 100.418 332.418 104 328 104H8.00001C3.58173 104 0 100.418 0 96V67.5507C8.83656 67.5507 16 60.3873 16 51.5507C16 42.7142 8.83656 35.5507 0 35.5507V8Z" fill="#FFF5F5"/>
<path d="M336 35.5508V36.5508H337V35.5508H336ZM336 67.5508H337V66.5508H336V67.5508ZM0 67.5507V66.5507H-1V67.5507H0ZM0 35.5507H-1V36.5507H0V35.5507ZM8 -1C3.02944 -1 -1 3.02944 -1 8H1C1 4.13401 4.13401 1 8 1V-1ZM328 -1H8V1H328V-1ZM337 8C337 3.02944 332.971 -1 328 -1V1C331.866 1 335 4.13401 335 8H337ZM337 35.5508V8H335V35.5508H337ZM321 51.5508C321 43.2665 327.716 36.5508 336 36.5508V34.5508C326.611 34.5508 319 42.1619 319 51.5508H321ZM336 66.5508C327.716 66.5508 321 59.8351 321 51.5508H319C319 60.9396 326.611 68.5508 336 68.5508V66.5508ZM337 96V67.5508H335V96H337ZM328 105C332.971 105 337 100.971 337 96H335C335 99.866 331.866 103 328 103V105ZM8.00001 105H328V103H8.00001V105ZM-1 96C-1 100.971 3.02945 105 8.00001 105V103C4.13402 103 1 99.866 1 96H-1ZM-1 67.5507V96H1V67.5507H-1ZM15 51.5507C15 59.835 8.28427 66.5507 0 66.5507V68.5507C9.38884 68.5507 17 60.9396 17 51.5507H15ZM0 36.5507C8.28427 36.5507 15 43.2664 15 51.5507H17C17 42.1619 9.38884 34.5507 0 34.5507V36.5507ZM-1 8V35.5507H1V8H-1Z" fill="#EAE3E3" mask="url(#path-1-inside-1_2242_54885)"/>
</svg>
